REM DIRINDEX 1\2,1\3,1\4
REM DIRNAME cjc038,folder01,folder02,folder03
TITLE ""
FILE "DISC1Track22.mp3" MP3
  TRACK 01 AUDIO
    TITLE "4:cjc038_0801"
    INDEX 01 00:00:00
  TRACK 02 AUDIO
    TITLE "0:"
    INDEX 01 00:02:34
  TRACK 03 AUDIO
    TITLE "2:cjc038_0802"
    INDEX 01 00:03:72
  TRACK 04 AUDIO
    TITLE "0:"
    INDEX 01 00:06:39
  TRACK 05 AUDIO
    TITLE "3:cjc038_0803"
    INDEX 01 00:06:49
  TRACK 06 AUDIO
    TITLE "0:"
    INDEX 01 00:09:06
  TRACK 07 AUDIO
    TITLE "2:cjc038_0804"
    INDEX 01 00:09:63
  TRACK 08 AUDIO
    TITLE "0:"
    INDEX 01 00:12:46
  TRACK 09 AUDIO
    TITLE "3:cjc038_0805"
    INDEX 01 00:12:54
  TRACK 10 AUDIO
    TITLE "0:"
    INDEX 01 00:15:19
  TRACK 11 AUDIO
    TITLE "2:cjc038_0806"
    INDEX 01 00:16:08
  TRACK 12 AUDIO
    TITLE "0:"
    INDEX 01 00:18:72
  TRACK 13 AUDIO
    TITLE "3:cjc038_0807"
    INDEX 01 00:19:03
  TRACK 14 AUDIO
    TITLE "0:"
    INDEX 01 00:21:51
  TRACK 15 AUDIO
    TITLE "2:cjc038_0808"
    INDEX 01 00:22:38
  TRACK 16 AUDIO
    TITLE "0:"
    INDEX 01 00:25:60
  TRACK 17 AUDIO
    TITLE "2:cjc038_0809"
    INDEX 01 00:25:66
  TRACK 18 AUDIO
    TITLE "0:"
    INDEX 01 00:28:15
  TRACK 19 AUDIO
    TITLE "3:cjc038_0810"
    INDEX 01 00:28:25
  TRACK 20 AUDIO
    TITLE "0:"
    INDEX 01 00:31:39
  TRACK 21 AUDIO
    TITLE "3:cjc038_0811"
    INDEX 01 00:31:49
  TRACK 22 AUDIO
    TITLE "0:"
    INDEX 01 00:33:58
  TRACK 23 AUDIO
    TITLE "2:cjc038_0812"
    INDEX 01 00:34:49
  TRACK 24 AUDIO
    TITLE "0:"
    INDEX 01 00:39:60
  TRACK 25 AUDIO
    TITLE "3:cjc038_0813"
    INDEX 01 00:39:70
  TRACK 26 AUDIO
    TITLE "0:"
    INDEX 01 00:44:73
  TRACK 27 AUDIO
    TITLE "2:cjc038_0814"
    INDEX 01 00:45:49
  TRACK 28 AUDIO
    TITLE "0:"
    INDEX 01 00:49:00
  TRACK 29 AUDIO
    TITLE "3:cjc038_0815"
    INDEX 01 00:49:10
  TRACK 30 AUDIO
    TITLE "0:"
    INDEX 01 00:52:24
  TRACK 31 AUDIO
    TITLE "2:cjc038_0816"
    INDEX 01 00:53:68
  TRACK 32 AUDIO
    TITLE "0:"
    INDEX 01 00:57:13
  TRACK 33 AUDIO
    TITLE "3:cjc038_0817"
    INDEX 01 00:57:19
  TRACK 34 AUDIO
    TITLE "0:"
    INDEX 01 01:00:21
  TRACK 35 AUDIO
    TITLE "2:cjc038_0818"
    INDEX 01 01:01:03
  TRACK 36 AUDIO
    TITLE "0:"
    INDEX 01 01:04:39
  TRACK 37 AUDIO
    TITLE "3:cjc038_0819"
    INDEX 01 01:04:47
  TRACK 38 AUDIO
    TITLE "0:"
    INDEX 01 01:07:70
  TRACK 39 AUDIO
    TITLE "2:cjc038_0820"
    INDEX 01 01:08:54
  TRACK 40 AUDIO
    TITLE "0:"
    INDEX 01 01:12:70
  TRACK 41 AUDIO
    TITLE "3:cjc038_0821"
    INDEX 01 01:13:02
  TRACK 42 AUDIO
    TITLE "0:"
    INDEX 01 01:17:04
  TRACK 43 AUDIO
    TITLE "2:cjc038_0822"
    INDEX 01 01:17:63
  TRACK 44 AUDIO
    TITLE "0:"
    INDEX 01 01:22:60
  TRACK 45 AUDIO
    TITLE "3:cjc038_0823"
    INDEX 01 01:22:66
  TRACK 46 AUDIO
    TITLE "0:"
    INDEX 01 01:27:51
  TRACK 47 AUDIO
    TITLE "2:cjc038_0824"
    INDEX 01 01:28:33
  TRACK 48 AUDIO
    TITLE "0:"
    INDEX 01 01:32:33
  TRACK 49 AUDIO
    TITLE "3:cjc038_0825"
    INDEX 01 01:32:41
  TRACK 50 AUDIO
    TITLE "0:"
    INDEX 01 01:36:33
  TRACK 51 AUDIO
    TITLE "2:cjc038_0826"
    INDEX 01 01:37:09
  TRACK 52 AUDIO
    TITLE "0:"
    INDEX 01 01:40:48
  TRACK 53 AUDIO
    TITLE "3:cjc038_0827"
    INDEX 01 01:40:56
  TRACK 54 AUDIO
    TITLE "0:"
    INDEX 01 01:44:13
  TRACK 55 AUDIO
    TITLE "2:cjc038_0828"
    INDEX 01 01:44:66
  TRACK 56 AUDIO
    TITLE "0:"
    INDEX 01 01:47:66
  TRACK 57 AUDIO
    TITLE "3:cjc038_0829"
    INDEX 01 01:47:74
  TRACK 58 AUDIO
    TITLE "0:"
    INDEX 01 01:50:58
  TRACK 59 AUDIO
    TITLE "2:cjc038_0830"
    INDEX 01 01:51:42
  TRACK 60 AUDIO
    TITLE "0:"
    INDEX 01 01:54:46
  TRACK 61 AUDIO
    TITLE "3:cjc038_0831"
    INDEX 01 01:54:52
  TRACK 62 AUDIO
    TITLE "0:"
    INDEX 01 01:57:45
  TRACK 63 AUDIO
    TITLE "2:cjc038_0832"
    INDEX 01 01:58:29
  TRACK 64 AUDIO
    TITLE "0:"
    INDEX 01 02:00:51
  TRACK 65 AUDIO
    TITLE "3:cjc038_0833"
    INDEX 01 02:00:61
  TRACK 66 AUDIO
    TITLE "0:"
    INDEX 01 02:02:69
  TRACK 67 AUDIO
    TITLE "2:cjc038_0834"
    INDEX 01 02:03:57
  TRACK 68 AUDIO
    TITLE "0:"
    INDEX 01 02:06:12
  TRACK 69 AUDIO
    TITLE "3:cjc038_0835"
    INDEX 01 02:06:20
  TRACK 70 AUDIO
    TITLE "0:"
    INDEX 01 02:08:47
  TRACK 71 AUDIO
    TITLE "2:cjc038_0836"
    INDEX 01 02:09:19
  TRACK 72 AUDIO
    TITLE "0:"
    INDEX 01 02:15:15
  TRACK 73 AUDIO
    TITLE "3:cjc038_0837"
    INDEX 01 02:15:25
  TRACK 74 AUDIO
    TITLE "0:"
    INDEX 01 02:21:12
  TRACK 75 AUDIO
    TITLE "2:cjc038_0838"
    INDEX 01 02:21:69
  TRACK 76 AUDIO
    TITLE "0:"
    INDEX 01 02:26:33
  TRACK 77 AUDIO
    TITLE "3:cjc038_0839"
    INDEX 01 02:26:44
  TRACK 78 AUDIO
    TITLE "0:"
    INDEX 01 02:30:70
  TRACK 79 AUDIO
    TITLE "2:cjc038_0840"
    INDEX 01 02:32:51
  TRACK 80 AUDIO
    TITLE "0:"
    INDEX 01 02:35:51
  TRACK 81 AUDIO
    TITLE "3:cjc038_0841"
    INDEX 01 02:35:57
  TRACK 82 AUDIO
    TITLE "0:"
    INDEX 01 02:38:42
  TRACK 83 AUDIO
    TITLE "2:cjc038_0842"
    INDEX 01 02:39:27
  TRACK 84 AUDIO
    TITLE "0:"
    INDEX 01 02:42:63
  TRACK 85 AUDIO
    TITLE "3:cjc038_0843"
    INDEX 01 02:42:71
  TRACK 86 AUDIO
    TITLE "0:"
    INDEX 01 02:46:12
  TRACK 87 AUDIO
    TITLE "2:cjc038_0844"
    INDEX 01 02:47:03
  TRACK 88 AUDIO
    TITLE "0:"
    INDEX 01 02:50:57
  TRACK 89 AUDIO
    TITLE "3:cjc038_0845"
    INDEX 01 02:50:63
  TRACK 90 AUDIO
    TITLE "0:"
    INDEX 01 02:54:27
  TRACK 91 AUDIO
    TITLE "2:cjc038_0846"
    INDEX 01 02:55:15
  TRACK 92 AUDIO
    TITLE "0:"
    INDEX 01 02:57:67
  TRACK 93 AUDIO
    TITLE "3:cjc038_0847"
    INDEX 01 02:57:74
  TRACK 94 AUDIO
    TITLE "0:"
    INDEX 01 03:00:28
  TRACK 95 AUDIO
    TITLE "2:cjc038_0848"
    INDEX 01 03:01:19
  TRACK 96 AUDIO
    TITLE "0:"
    INDEX 01 03:04:06
  TRACK 97 AUDIO
    TITLE "3:cjc038_0849"
    INDEX 01 03:04:18
  TRACK 98 AUDIO
    TITLE "0:"
    INDEX 01 03:06:66
  TRACK 99 AUDIO
    TITLE "2:cjc038_0850"
    INDEX 01 03:07:55
  TRACK 100 AUDIO
    TITLE "0:"
    INDEX 01 03:10:28
  TRACK 101 AUDIO
    TITLE "3:cjc038_0851"
    INDEX 01 03:10:36
  TRACK 102 AUDIO
    TITLE "0:"
    INDEX 01 03:13:01
